<svg id="visual" viewBox="0 0 1080 300" width="1080" height="300" xmlns="http://www.w3.org/2000/svg" xmlns:xlink="http://www.w3.org/1999/xlink" version="1.1"><rect width="1080" height="300" fill="#001122"></rect><g><g transform="translate(545 237)"><path d="M0 -10.2L4.4 -9.1L7.9 -6.3L9.9 -2.3L9.9 2.3L7.9 6.3L4.4 9.1L0 10.2L-4.4 9.1L-7.9 6.3L-9.9 2.3L-9.9 -2.3L-7.9 -6.3L-4.4 -9.1Z" fill="none" stroke="#F7770F" stroke-width="1"></path></g><g transform="translate(531 107)"><path d="M0 -2L0.9 -1.8L1.6 -1.2L1.9 -0.4L1.9 0.4L1.6 1.2L0.9 1.8L0 2L-0.9 1.8L-1.6 1.2L-1.9 0.4L-1.9 -0.4L-1.6 -1.2L-0.9 -1.8Z" fill="none" stroke="#F7770F" stroke-width="1"></path></g><g transform="translate(157 167)"><path d="M0 -9L3.9 -8.1L7 -5.6L8.8 -2L8.8 2L7 5.6L3.9 8.1L0 9L-3.9 8.1L-7 5.6L-8.8 2L-8.8 -2L-7 -5.6L-3.9 -8.1Z" fill="none" stroke="#F7770F" stroke-width="1"></path></g><g transform="translate(160 261)"><path d="M0 -2L0.9 -1.8L1.6 -1.2L1.9 -0.4L1.9 0.4L1.6 1.2L0.9 1.8L0 2L-0.9 1.8L-1.6 1.2L-1.9 0.4L-1.9 -0.4L-1.6 -1.2L-0.9 -1.8Z" fill="none" stroke="#F7770F" stroke-width="1"></path></g><g transform="translate(1040 282)"><path d="M0 -7L3 -6.3L5.5 -4.4L6.8 -1.6L6.8 1.6L5.5 4.4L3 6.3L0 7L-3 6.3L-5.5 4.4L-6.8 1.6L-6.8 -1.6L-5.5 -4.4L-3 -6.3Z" fill="none" stroke="#F7770F" stroke-width="1"></path></g><g transform="translate(356 114)"><path d="M0 -2L0.9 -1.8L1.6 -1.2L1.9 -0.4L1.9 0.4L1.6 1.2L0.9 1.8L0 2L-0.9 1.8L-1.6 1.2L-1.9 0.4L-1.9 -0.4L-1.6 -1.2L-0.9 -1.8Z" stroke="#F7770F" fill="none" stroke-width="1"></path></g><g transform="translate(259 103)"><path d="M0 -9L3.9 -8.1L7 -5.6L8.8 -2L8.8 2L7 5.6L3.9 8.1L0 9L-3.9 8.1L-7 5.6L-8.8 2L-8.8 -2L-7 -5.6L-3.9 -8.1Z" stroke="#F7770F" fill="none" stroke-width="1"></path></g><g transform="translate(797 240)"><path d="M0 -4L1.7 -3.6L3.1 -2.5L3.9 -0.9L3.9 0.9L3.1 2.5L1.7 3.6L0 4L-1.7 3.6L-3.1 2.5L-3.9 0.9L-3.9 -0.9L-3.1 -2.5L-1.7 -3.6Z" stroke="#F7770F" fill="none" stroke-width="1"></path></g><g transform="translate(321 187)"><path d="M0 -1L0.4 -0.9L0.8 -0.6L1 -0.2L1 0.2L0.8 0.6L0.4 0.9L0 1L-0.4 0.9L-0.8 0.6L-1 0.2L-1 -0.2L-0.8 -0.6L-0.4 -0.9Z" stroke="#F7770F" fill="none" stroke-width="1"></path></g><g transform="translate(1028 134)"><path d="M0 -3L1.3 -2.7L2.3 -1.9L2.9 -0.7L2.9 0.7L2.3 1.9L1.3 2.7L0 3L-1.3 2.7L-2.3 1.9L-2.9 0.7L-2.9 -0.7L-2.3 -1.9L-1.3 -2.7Z" stroke="#F7770F" fill="none" stroke-width="1"></path></g><g transform="translate(692 246)"><path d="M0 -8L3.5 -7.2L6.3 -5L7.8 -1.8L7.8 1.8L6.3 5L3.5 7.2L0 8L-3.5 7.2L-6.3 5L-7.8 1.8L-7.8 -1.8L-6.3 -5L-3.5 -7.2Z" stroke="#F7770F" fill="none" stroke-width="1"></path></g><g transform="translate(1034 217)"><path d="M0 -8L3.5 -7.2L6.3 -5L7.8 -1.8L7.8 1.8L6.3 5L3.5 7.2L0 8L-3.5 7.2L-6.3 5L-7.8 1.8L-7.8 -1.8L-6.3 -5L-3.5 -7.2Z" stroke="#F7770F" fill="none" stroke-width="1"></path></g><g transform="translate(478 43)"><path d="M0 -9L3.9 -8.1L7 -5.6L8.8 -2L8.8 2L7 5.6L3.9 8.1L0 9L-3.9 8.1L-7 5.6L-8.8 2L-8.8 -2L-7 -5.6L-3.9 -8.1Z" stroke="#F7770F" fill="none" stroke-width="1"></path></g><g transform="translate(55 58)"><path d="M0 -1L0.4 -0.9L0.8 -0.6L1 -0.2L1 0.2L0.8 0.6L0.4 0.9L0 1L-0.4 0.9L-0.8 0.6L-1 0.2L-1 -0.2L-0.8 -0.6L-0.4 -0.9Z" stroke="#F7770F" fill="none" stroke-width="1"></path></g><g transform="translate(267 269)"><path d="M0 -1L0.4 -0.9L0.8 -0.6L1 -0.2L1 0.2L0.8 0.6L0.4 0.9L0 1L-0.4 0.9L-0.8 0.6L-1 0.2L-1 -0.2L-0.8 -0.6L-0.4 -0.9Z" stroke="#F7770F" fill="none" stroke-width="1"></path></g><g transform="translate(239 9)"><path d="M0 -2L0.9 -1.8L1.6 -1.2L1.9 -0.4L1.9 0.4L1.6 1.2L0.9 1.8L0 2L-0.9 1.8L-1.6 1.2L-1.9 0.4L-1.9 -0.4L-1.6 -1.2L-0.9 -1.8Z" stroke="#F7770F" fill="none" stroke-width="1"></path></g><g transform="translate(208 204)"><path d="M0 -7L3 -6.3L5.5 -4.4L6.8 -1.6L6.8 1.6L5.5 4.4L3 6.3L0 7L-3 6.3L-5.5 4.4L-6.8 1.6L-6.8 -1.6L-5.5 -4.4L-3 -6.3Z" stroke="#F7770F" fill="none" stroke-width="1"></path></g><g transform="translate(515 149)"><path d="M0 -3L1.3 -2.7L2.3 -1.9L2.9 -0.7L2.9 0.7L2.3 1.9L1.3 2.7L0 3L-1.3 2.7L-2.3 1.9L-2.9 0.7L-2.9 -0.7L-2.3 -1.9L-1.3 -2.7Z" stroke="#F7770F" fill="none" stroke-width="1"></path></g><g transform="translate(622 191)"><path d="M0 -1L0.4 -0.9L0.8 -0.6L1 -0.2L1 0.2L0.8 0.6L0.4 0.9L0 1L-0.4 0.9L-0.8 0.6L-1 0.2L-1 -0.2L-0.8 -0.6L-0.4 -0.9Z" stroke="#F7770F" fill="none" stroke-width="1"></path></g><g transform="translate(423 50)"><path d="M0 -3L1.3 -2.7L2.3 -1.9L2.9 -0.7L2.9 0.7L2.3 1.9L1.3 2.7L0 3L-1.3 2.7L-2.3 1.9L-2.9 0.7L-2.9 -0.7L-2.3 -1.9L-1.3 -2.7Z" stroke="#F7770F" fill="none" stroke-width="1"></path></g><g transform="translate(1016 160)"><path d="M0 -1L0.4 -0.9L0.8 -0.6L1 -0.2L1 0.2L0.8 0.6L0.4 0.9L0 1L-0.4 0.9L-0.8 0.6L-1 0.2L-1 -0.2L-0.8 -0.6L-0.4 -0.9Z" stroke="#F7770F" fill="none" stroke-width="1"></path></g><g transform="translate(632 86)"><path d="M0 -2L0.9 -1.8L1.6 -1.2L1.9 -0.4L1.9 0.4L1.6 1.2L0.9 1.8L0 2L-0.9 1.8L-1.6 1.2L-1.9 0.4L-1.9 -0.4L-1.6 -1.2L-0.9 -1.8Z" stroke="#F7770F" fill="none" stroke-width="1"></path></g><g transform="translate(577 97)"><path d="M0 -4L1.7 -3.6L3.1 -2.5L3.9 -0.9L3.9 0.9L3.1 2.5L1.7 3.6L0 4L-1.7 3.6L-3.1 2.5L-3.9 0.9L-3.9 -0.9L-3.1 -2.5L-1.7 -3.6Z" stroke="#F7770F" fill="none" stroke-width="1"></path></g><g transform="translate(646 149)"><path d="M0 -2L0.9 -1.8L1.6 -1.2L1.9 -0.4L1.9 0.4L1.6 1.2L0.9 1.8L0 2L-0.9 1.8L-1.6 1.2L-1.9 0.4L-1.9 -0.4L-1.6 -1.2L-0.9 -1.8Z" stroke="#F7770F" fill="none" stroke-width="1"></path></g><g transform="translate(87 225)"><path d="M0 -5L2.2 -4.5L3.9 -3.1L4.9 -1.1L4.9 1.1L3.9 3.1L2.2 4.5L0 5L-2.2 4.5L-3.9 3.1L-4.9 1.1L-4.9 -1.1L-3.9 -3.1L-2.2 -4.5Z" stroke="#F7770F" fill="none" stroke-width="1"></path></g><g transform="translate(65 290)"><path d="M0 -5L2.2 -4.5L3.9 -3.1L4.9 -1.1L4.9 1.1L3.9 3.1L2.2 4.5L0 5L-2.2 4.5L-3.9 3.1L-4.9 1.1L-4.9 -1.1L-3.9 -3.1L-2.2 -4.5Z" stroke="#F7770F" fill="none" stroke-width="1"></path></g><g transform="translate(258 149)"><path d="M0 -8L3.5 -7.2L6.3 -5L7.8 -1.8L7.8 1.8L6.3 5L3.5 7.2L0 8L-3.5 7.2L-6.3 5L-7.8 1.8L-7.8 -1.8L-6.3 -5L-3.5 -7.2Z" stroke="#F7770F" fill="none" stroke-width="1"></path></g><g transform="translate(1019 186)"><path d="M0 -3L1.3 -2.7L2.3 -1.9L2.9 -0.7L2.9 0.7L2.3 1.9L1.3 2.7L0 3L-1.3 2.7L-2.3 1.9L-2.9 0.7L-2.9 -0.7L-2.3 -1.9L-1.3 -2.7Z" stroke="#F7770F" fill="none" stroke-width="1"></path></g><g transform="translate(689 69)"><path d="M0 -4L1.7 -3.6L3.1 -2.5L3.9 -0.9L3.9 0.9L3.1 2.5L1.7 3.6L0 4L-1.7 3.6L-3.1 2.5L-3.9 0.9L-3.9 -0.9L-3.1 -2.5L-1.7 -3.6Z" stroke="#F7770F" fill="none" stroke-width="1"></path></g><g transform="translate(999 203)"><path d="M0 -3L1.3 -2.7L2.3 -1.9L2.9 -0.7L2.9 0.7L2.3 1.9L1.3 2.7L0 3L-1.3 2.7L-2.3 1.9L-2.9 0.7L-2.9 -0.7L-2.3 -1.9L-1.3 -2.7Z" stroke="#F7770F" fill="none" stroke-width="1"></path></g><g transform="translate(935 13)"><path d="M0 -6L2.6 -5.4L4.7 -3.7L5.8 -1.3L5.8 1.3L4.7 3.7L2.6 5.4L0 6L-2.6 5.4L-4.7 3.7L-5.8 1.3L-5.8 -1.3L-4.7 -3.7L-2.6 -5.4Z" stroke="#F7770F" fill="none" stroke-width="1"></path></g><g transform="translate(727 146)"><path d="M0 -6L2.6 -5.4L4.7 -3.7L5.8 -1.3L5.8 1.3L4.7 3.7L2.6 5.4L0 6L-2.6 5.4L-4.7 3.7L-5.8 1.3L-5.8 -1.3L-4.7 -3.7L-2.6 -5.4Z" stroke="#F7770F" fill="none" stroke-width="1"></path></g><g transform="translate(476 99)"><path d="M0 -3L1.3 -2.7L2.3 -1.9L2.9 -0.7L2.9 0.7L2.3 1.9L1.3 2.7L0 3L-1.3 2.7L-2.3 1.9L-2.9 0.7L-2.9 -0.7L-2.3 -1.9L-1.3 -2.7Z" stroke="#F7770F" fill="none" stroke-width="1"></path></g><g transform="translate(651 9)"><path d="M0 -5L2.2 -4.5L3.9 -3.1L4.9 -1.1L4.9 1.1L3.9 3.1L2.2 4.5L0 5L-2.2 4.5L-3.9 3.1L-4.9 1.1L-4.9 -1.1L-3.9 -3.1L-2.2 -4.5Z" stroke="#F7770F" fill="none" stroke-width="1"></path></g><g transform="translate(781 108)"><path d="M0 -8L3.5 -7.2L6.3 -5L7.8 -1.8L7.8 1.8L6.3 5L3.5 7.2L0 8L-3.5 7.2L-6.3 5L-7.8 1.8L-7.8 -1.8L-6.3 -5L-3.5 -7.2Z" stroke="#F7770F" fill="none" stroke-width="1"></path></g><g transform="translate(579 17)"><path d="M0 -1L0.4 -0.9L0.8 -0.6L1 -0.2L1 0.2L0.8 0.6L0.4 0.9L0 1L-0.4 0.9L-0.8 0.6L-1 0.2L-1 -0.2L-0.8 -0.6L-0.4 -0.9Z" stroke="#F7770F" fill="none" stroke-width="1"></path></g><g transform="translate(485 8)"><path d="M0 -3L1.3 -2.7L2.3 -1.9L2.9 -0.7L2.9 0.7L2.3 1.9L1.3 2.7L0 3L-1.3 2.7L-2.3 1.9L-2.9 0.7L-2.9 -0.7L-2.3 -1.9L-1.3 -2.7Z" stroke="#F7770F" fill="none" stroke-width="1"></path></g><g transform="translate(9 286)"><path d="M0 -4L1.7 -3.6L3.1 -2.5L3.9 -0.9L3.9 0.9L3.1 2.5L1.7 3.6L0 4L-1.7 3.6L-3.1 2.5L-3.9 0.9L-3.9 -0.9L-3.1 -2.5L-1.7 -3.6Z" stroke="#F7770F" fill="none" stroke-width="1"></path></g><g transform="translate(273 293)"><path d="M0 -2L0.9 -1.8L1.6 -1.2L1.9 -0.4L1.9 0.4L1.6 1.2L0.9 1.8L0 2L-0.9 1.8L-1.6 1.2L-1.9 0.4L-1.9 -0.4L-1.6 -1.2L-0.9 -1.8Z" stroke="#F7770F" fill="none" stroke-width="1"></path></g><g transform="translate(343 90)"><path d="M0 -3L1.3 -2.7L2.3 -1.9L2.9 -0.7L2.9 0.7L2.3 1.9L1.3 2.7L0 3L-1.3 2.7L-2.3 1.9L-2.9 0.7L-2.9 -0.7L-2.3 -1.9L-1.3 -2.7Z" stroke="#F7770F" fill="none" stroke-width="1"></path></g><g transform="translate(1025 250)"><path d="M0 -4L1.7 -3.6L3.1 -2.5L3.9 -0.9L3.9 0.9L3.1 2.5L1.7 3.6L0 4L-1.7 3.6L-3.1 2.5L-3.9 0.9L-3.9 -0.9L-3.1 -2.5L-1.7 -3.6Z" stroke="#F7770F" fill="none" stroke-width="1"></path></g><g transform="translate(363 242)"><path d="M0 -8L3.5 -7.2L6.3 -5L7.8 -1.8L7.8 1.8L6.3 5L3.5 7.2L0 8L-3.5 7.2L-6.3 5L-7.8 1.8L-7.8 -1.8L-6.3 -5L-3.5 -7.2Z" stroke="#F7770F" fill="none" stroke-width="1"></path></g><g transform="translate(949 199)"><path d="M0 -5L2.2 -4.5L3.9 -3.1L4.9 -1.1L4.9 1.1L3.9 3.1L2.2 4.5L0 5L-2.2 4.5L-3.9 3.1L-4.9 1.1L-4.9 -1.1L-3.9 -3.1L-2.2 -4.5Z" stroke="#F7770F" fill="none" stroke-width="1"></path></g><g transform="translate(735 265)"><path d="M0 -5L2.2 -4.5L3.9 -3.1L4.9 -1.1L4.9 1.1L3.9 3.1L2.2 4.5L0 5L-2.2 4.5L-3.9 3.1L-4.9 1.1L-4.9 -1.1L-3.9 -3.1L-2.2 -4.5Z" stroke="#F7770F" fill="none" stroke-width="1"></path></g><g transform="translate(14 154)"><path d="M0 -5L2.2 -4.5L3.9 -3.1L4.9 -1.1L4.9 1.1L3.9 3.1L2.2 4.5L0 5L-2.2 4.5L-3.9 3.1L-4.9 1.1L-4.9 -1.1L-3.9 -3.1L-2.2 -4.5Z" stroke="#F7770F" fill="none" stroke-width="1"></path></g><g transform="translate(655 169)"><path d="M0 -9L3.9 -8.1L7 -5.6L8.8 -2L8.8 2L7 5.6L3.9 8.1L0 9L-3.9 8.1L-7 5.6L-8.8 2L-8.8 -2L-7 -5.6L-3.9 -8.1Z" stroke="#F7770F" fill="none" stroke-width="1"></path></g><g transform="translate(594 240)"><path d="M0 -8L3.5 -7.2L6.3 -5L7.8 -1.8L7.8 1.8L6.3 5L3.5 7.2L0 8L-3.5 7.2L-6.3 5L-7.8 1.8L-7.8 -1.8L-6.3 -5L-3.5 -7.2Z" stroke="#F7770F" fill="none" stroke-width="1"></path></g><g transform="translate(561 139)"><path d="M0 -3L1.3 -2.7L2.3 -1.9L2.9 -0.7L2.9 0.7L2.3 1.9L1.3 2.7L0 3L-1.3 2.7L-2.3 1.9L-2.9 0.7L-2.9 -0.7L-2.3 -1.9L-1.3 -2.7Z" stroke="#F7770F" fill="none" stroke-width="1"></path></g><g transform="translate(974 105)"><path d="M0 -7L3 -6.3L5.5 -4.4L6.8 -1.6L6.8 1.6L5.5 4.4L3 6.3L0 7L-3 6.3L-5.5 4.4L-6.8 1.6L-6.8 -1.6L-5.5 -4.4L-3 -6.3Z" stroke="#F7770F" fill="none" stroke-width="1"></path></g><g transform="translate(754 285)"><path d="M0 -4L1.7 -3.6L3.1 -2.5L3.9 -0.9L3.9 0.9L3.1 2.5L1.7 3.6L0 4L-1.7 3.6L-3.1 2.5L-3.9 0.9L-3.9 -0.9L-3.1 -2.5L-1.7 -3.6Z" stroke="#F7770F" fill="none" stroke-width="1"></path></g></g></svg>