<svg id="visual" viewBox="0 0 960 540" width="960" height="540" xmlns="http://www.w3.org/2000/svg" xmlns:xlink="http://www.w3.org/1999/xlink" version="1.1"><rect x="0" y="0" width="960" height="540" fill="#0f172a"></rect><g fill="none" stroke="#F7770F" stroke-width="1"><path d="M0 -32.1L7.2 -9.9L30.5 -9.9L11.7 3.8L18.9 26L0 12.3L-18.9 26L-11.7 3.8L-30.5 -9.9L-7.2 -9.9Z" transform="translate(92 368)"></path><path d="M0 -2.8L0.6 -0.9L2.7 -0.9L1 0.3L1.7 2.3L0 1.1L-1.7 2.3L-1 0.3L-2.7 -0.9L-0.6 -0.9Z" transform="translate(544 346)"></path><path d="M0 -17.9L4 -5.5L17.1 -5.5L6.5 2.1L10.5 14.5L0 6.8L-10.5 14.5L-6.5 2.1L-17.1 -5.5L-4 -5.5Z" transform="translate(126 85)"></path><path d="M0 -26.4L5.9 -8.2L25.1 -8.2L9.6 3.1L15.5 21.4L0 10.1L-15.5 21.4L-9.6 3.1L-25.1 -8.2L-5.9 -8.2Z" transform="translate(7 319)"></path><path d="M0 -16L3.6 -5L15.3 -5L5.8 1.9L9.4 13L0 6.1L-9.4 13L-5.8 1.9L-15.3 -5L-3.6 -5Z" transform="translate(233 437)"></path><path d="M0 -23.6L5.3 -7.3L22.4 -7.3L8.6 2.8L13.9 19.1L0 9L-13.9 19.1L-8.6 2.8L-22.4 -7.3L-5.3 -7.3Z" transform="translate(848 235)"></path><path d="M0 -25.5L5.7 -7.9L24.2 -7.9L9.3 3L15 20.6L0 9.7L-15 20.6L-9.3 3L-24.2 -7.9L-5.7 -7.9Z" transform="translate(451 43)"></path><path d="M0 -4.7L1.1 -1.5L4.5 -1.5L1.7 0.6L2.8 3.8L0 1.8L-2.8 3.8L-1.7 0.6L-4.5 -1.5L-1.1 -1.5Z" transform="translate(740 368)"></path><path d="M0 -30.2L6.8 -9.3L28.7 -9.3L11 3.6L17.8 24.4L0 11.5L-17.8 24.4L-11 3.6L-28.7 -9.3L-6.8 -9.3Z" transform="translate(592 285)"></path><path d="M0 -9.4L2.1 -2.9L9 -2.9L3.4 1.1L5.5 7.6L0 3.6L-5.5 7.6L-3.4 1.1L-9 -2.9L-2.1 -2.9Z" transform="translate(679 441)"></path><path d="M0 -5.7L1.3 -1.7L5.4 -1.7L2.1 0.7L3.3 4.6L0 2.2L-3.3 4.6L-2.1 0.7L-5.4 -1.7L-1.3 -1.7Z" transform="translate(483 255)"></path><path d="M0 -17L3.8 -5.2L16.2 -5.2L6.2 2L10 13.7L0 6.5L-10 13.7L-6.2 2L-16.2 -5.2L-3.8 -5.2Z" transform="translate(188 295)"></path><path d="M0 -10.4L2.3 -3.2L9.9 -3.2L3.8 1.2L6.1 8.4L0 4L-6.1 8.4L-3.8 1.2L-9.9 -3.2L-2.3 -3.2Z" transform="translate(766 305)"></path><path d="M0 -12.3L2.8 -3.8L11.7 -3.8L4.5 1.4L7.2 9.9L0 4.7L-7.2 9.9L-4.5 1.4L-11.7 -3.8L-2.8 -3.8Z" transform="translate(328 239)"></path><path d="M0 -4.7L1.1 -1.5L4.5 -1.5L1.7 0.6L2.8 3.8L0 1.8L-2.8 3.8L-1.7 0.6L-4.5 -1.5L-1.1 -1.5Z" transform="translate(487 517)"></path><path d="M0 -6.6L1.5 -2L6.3 -2L2.4 0.8L3.9 5.3L0 2.5L-3.9 5.3L-2.4 0.8L-6.3 -2L-1.5 -2Z" transform="translate(237 92)"></path><path d="M0 -13.2L3 -4.1L12.6 -4.1L4.8 1.6L7.8 10.7L0 5L-7.8 10.7L-4.8 1.6L-12.6 -4.1L-3 -4.1Z" transform="translate(114 469)"></path><path d="M0 -22.7L5.1 -7L21.5 -7L8.2 2.7L13.3 18.3L0 8.7L-13.3 18.3L-8.2 2.7L-21.5 -7L-5.1 -7Z" transform="translate(698 89)"></path><path d="M0 -11.3L2.5 -3.5L10.8 -3.5L4.1 1.3L6.7 9.2L0 4.3L-6.7 9.2L-4.1 1.3L-10.8 -3.5L-2.5 -3.5Z" transform="translate(35 508)"></path></g></svg>